# xmcd
#
# Track frame offsets:
#	150
#	15600
#	34393
#	53838
#	73311
#	92017
#	106641
#	122739
#	146175
#	161740
#	185323
#	245860
#
# Disc length: 3316 seconds
#
# Revision: 1
# Processed by: cddbd v1.5.1PL0 Copyright (c) Steve Scherf et al.
# Submitted via: audiograbber 1.83.01
#
DISCID=ac0cf20c
DTITLE=Louis Turpin - House on the Hill
DYEAR=2004
DGENRE=Blues
TTITLE0=Move On Up The Hill
TTITLE1=Down South in New Orleans
TTITLE2=Picture in the Frame
TTITLE3=Ooh the Memories
TTITLE4=It Hurts Me Too
TTITLE5=Called You This Morning
TTITLE6=Tell Your Sister
TTITLE7=Rainy Night in Georgia
TTITLE8=Death Letter Blues
TTITLE9=Midnight Special
TTITLE10=Forever Young
TTITLE11=Outtro
EXTD=Hear Bruce Allen on percussion...
EXTT0=
EXTT1=
EXTT2=
EXTT3=
EXTT4=
EXTT5=
EXTT6=
EXTT7=
EXTT8=
EXTT9=
EXTT10=
EXTT11=
PLAYORDER=
